<svg xmlns="http://www.w3.org/2000/svg" viewBox="0 0 512 512" fill="none">
  <path fill="currentColor" d="M256 92c-22.37 0-42.83 7.49-58.96 20.08C183.29 101.73 165.96 96 147.25 96 96.3 96 55 137.3 55 188.25c0 26.74 11.38 50.83 29.56 67.67C72.67 263.45 65 277.14 65 292.63 65 315.48 83.52 334 106.38 334H154v74c0 22.09 17.91 40 40 40s40-17.91 40-40v-74h44v74c0 22.09 17.91 40 40 40s40-17.91 40-40v-74h47.62C428.48 334 447 315.48 447 292.63c0-15.62-7.8-29.41-19.88-36.86C445.55 238.92 457 214.88 457 188.25 457 137.3 415.7 96 364.75 96c-18.71 0-36.04 5.73-49.79 16.08C298.83 99.49 278.37 92 256 92Z"/>
  <circle cx="204" cy="228" r="18" fill="#020618"/>
  <circle cx="308" cy="228" r="18" fill="#020618"/>
  <path d="M200 291c16.02 20.6 34.68 30.9 56 30.9 21.32 0 39.98-10.3 56-30.9" stroke="#020618" stroke-linecap="round" stroke-width="14"/>
  <path d="M256 140v104" stroke="#020618" stroke-linecap="round" stroke-width="14"/>
</svg>